# xmcd
#
# Track frame offsets:
#	150
#	23405
#	41085
#	64672
#	82947
#	99236
#	113122
#	132858
#	155466
#	174188
#	197391
#
# Disc length: 2916 seconds
#
# Revision: 0
# Processed by: cddbd v1.5PL3 Copyright (c) Steve Scherf et al.
# Submitted via: dBpowerAMP V4.0
#
DISCID=760b620b
DTITLE=Charlie Cutten - Basic Transportation
DYEAR=1900
DGENRE=Acoustic
TTITLE0=Cloud's Rest
TTITLE1=3rd of July
TTITLE2=Basic Transportation
TTITLE3=Onbne Too Many Goodbyes
TTITLE4=Late bloomer Blues
TTITLE5=Sunset in Avignon
TTITLE6=St Ignatius
TTITLE7=La Valse Pour Le Petit Prince
TTITLE8=Go Back You're Going the Wrong Way
TTITLE9=Hummingbirds At The Motel 6
TTITLE10=Rejoice
EXTD=
EXTT0=
EXTT1=
EXTT2=
EXTT3=
EXTT4=
EXTT5=
EXTT6=
EXTT7=
EXTT8=
EXTT9=
EXTT10=
PLAYORDER=
